<svg version="1.1" viewBox="0.0 0.0 720.0 720.0" fill="none" stroke="none" stroke-linecap="square" stroke-miterlimit="10" xmlns:xlink="http://www.w3.org/1999/xlink" xmlns="http://www.w3.org/2000/svg"><clipPath id="p.0"><path d="m0 0l720.0 0l0 720.0l-720.0 0l0 -720.0z" clip-rule="nonzero"/></clipPath><g clip-path="url(#p.0)"><path fill="#000000" d="m0 0l720.0 0l0 720.0l-720.0 0z" fill-rule="evenodd"/><path fill="#ff9900" d="m50.740158 134.5958l206.17323 0l0 205.10236l-206.17323 0z" fill-rule="evenodd"/><path stroke="#595959" stroke-width="1.0" stroke-linejoin="round" stroke-linecap="butt" d="m50.740158 134.5958l206.17323 0l0 205.10236l-206.17323 0z" fill-rule="evenodd"/><path fill="#00ff00" d="m256.9134 473.23096l206.17322 0l0 205.10236l-206.17322 0z" fill-rule="evenodd"/><path stroke="#595959" stroke-width="1.0" stroke-linejoin="round" stroke-linecap="butt" d="m256.9134 473.23096l206.17322 0l0 205.10236l-206.17322 0z" fill-rule="evenodd"/><path fill="#ff0000" d="m463.0866 68.36483l206.17322 0l0 205.10236l-206.17322 0z" fill-rule="evenodd"/><path stroke="#595959" stroke-width="1.0" stroke-linejoin="round" stroke-linecap="butt" d="m463.0866 68.36483l206.17322 0l0 205.10236l-206.17322 0z" fill-rule="evenodd"/><path fill="#ffffff" d="m256.9134 32.040684l206.17322 0l0 205.10237l-206.17322 0z" fill-rule="evenodd"/><path stroke="#000000" stroke-width="1.0" stroke-linejoin="round" stroke-linecap="butt" d="m256.9134 32.040684l206.17322 0l0 205.10237l-206.17322 0z" fill-rule="evenodd"/><path fill="#0000ff" d="m50.740158 339.69815l206.17323 0l0 205.10239l-206.17323 0z" fill-rule="evenodd"/><path stroke="#595959" stroke-width="1.0" stroke-linejoin="round" stroke-linecap="butt" d="m50.740158 339.69815l206.17323 0l0 205.10239l-206.17323 0z" fill-rule="evenodd"/><path fill="#eeff41" d="m463.0866 429.43832l206.17322 0l0 205.10239l-206.17322 0z" fill-rule="evenodd"/><path stroke="#595959" stroke-width="1.0" stroke-linejoin="round" stroke-linecap="butt" d="m463.0866 429.43832l206.17322 0l0 205.10239l-206.17322 0z" fill-rule="evenodd"/></g></svg>